<svg width="80" height="74" viewBox="0 0 80 74" fill="none" xmlns="http://www.w3.org/2000/svg">
<path d="M14.189 32.252C12.0472 32.252 10.3149 33.9842 10.3149 36.126C10.3149 38.2677 12.0472 40 14.189 40C16.3307 40 18.063 38.2677 18.063 36.126C18.063 34 16.3307 32.252 14.189 32.252ZM14.189 37.4173C13.4803 37.4173 12.8976 36.8346 12.8976 36.126C12.8976 35.4173 13.4803 34.8346 14.189 34.8346C14.8976 34.8346 15.4803 35.4173 15.4803 36.126C15.4803 36.8346 14.8976 37.4173 14.189 37.4173Z" fill="#9C9C9C"/>
<path d="M56.3622 17.5276C56.6299 16.4409 56.7717 15.3228 56.7717 14.189C56.7717 6.3622 50.4094 0 42.5827 0C34.7559 0 28.3937 6.3622 28.3937 14.189C28.3937 15.1181 28.4882 16.0315 28.6614 16.9134C27.5118 17.1811 26.3622 17.4646 25.2756 17.7953C22.6457 13.9528 18.252 11.6063 13.5748 11.6063C9.46457 11.6063 5.37008 13.7323 5.37008 13.7323L8.59842 14.9449C11.8583 16.1732 14.3937 18.7717 15.5118 22.0315C10.8189 24.8346 7.2126 28.3465 5.02362 32.2677H0V50.315H5.00787C7.76378 55.2441 12.8032 59.5433 19.3543 62.5512V73.5433H34.8346V66.7244C38.7717 67.1654 42.5669 67.2126 46.4409 66.8661V73.5433H61.9213V63.1339C73.2598 58.3937 80 50.2835 80 41.2913C80 30.7717 70.7559 21.5591 56.3622 17.5276ZM42.5827 2.58268C48.9921 2.58268 54.189 7.79528 54.189 14.189C54.189 17.0709 53.1496 19.811 51.2283 21.937H43.874V20.4095C45.3701 19.874 46.4567 18.4567 46.4567 16.7717C46.4567 14.6299 44.7244 12.8976 42.5827 12.8976C41.874 12.8976 41.2913 12.315 41.2913 11.6063C41.2913 10.8976 41.874 10.315 42.5827 10.315C43.2913 10.315 43.874 10.8976 43.874 11.6063H46.4567C46.4567 9.92126 45.3701 8.50394 43.874 7.9685V6.44095H41.2913V7.9685C39.7953 8.50394 38.7087 9.92126 38.7087 11.6063C38.7087 13.748 40.4409 15.4803 42.5827 15.4803C43.2913 15.4803 43.874 16.063 43.874 16.7717C43.874 17.4803 43.2913 18.063 42.5827 18.063C41.874 18.063 41.2913 17.4803 41.2913 16.7717H38.7087C38.7087 18.4567 39.7953 19.874 41.2913 20.4095V21.937H33.9213C32.0157 19.811 30.9606 17.0866 30.9606 14.189C30.9606 7.77953 36.1732 2.58268 42.5827 2.58268ZM60.1732 61.0709L59.3543 61.4016V70.9764H49.0394V64L47.6063 64.1575C42.9921 64.6772 38.4567 64.6457 33.7323 63.9842L32.2677 63.7795V70.9606H21.9528V60.8661L21.1811 60.5354C14.4882 57.622 9.43307 53.3386 6.96063 48.4567L6.59843 47.748H2.58268V34.8504H6.58268C6.58268 34.8504 9.5748 27.7323 17.6535 23.7795L18.5197 23.2913L18.2835 22.3307C17.4488 19.0236 15.4488 16.1575 12.7087 14.2362C17.0866 13.9213 21.3701 16.1732 23.5906 19.9843L24.1102 20.8819C24.1102 20.8819 27.9055 19.748 29.3858 19.4016C29.7323 20.2835 30.1732 21.1339 30.6929 21.937H28.3937V24.5197H56.7874V21.937H54.4882C54.8976 21.3071 55.2441 20.6614 55.5433 19.9843C68.6772 23.6378 77.4331 32.0945 77.4331 41.3071C77.4173 49.3858 70.9764 56.7874 60.1732 61.0709Z" fill="#9C9C9C"/>
</svg>
