<svg width="74" height="80" viewBox="0 0 74 80" fill="none" xmlns="http://www.w3.org/2000/svg">
<path d="M31.8237 17.9195C32.2366 17.9195 32.6259 17.7246 32.8726 17.3934C33.12 17.0623 33.1967 16.6347 33.0791 16.2384C32.1407 13.0341 30.5191 10.0714 28.3247 7.55551C26.5567 5.67434 23.9251 4.86895 21.4073 5.43848C21.0596 5.57143 20.7853 5.84629 20.6524 6.19401C20.5802 6.38961 20.5265 6.59159 20.4926 6.79742C20.4523 7.04159 20.4306 7.28832 20.4268 7.53569V7.55679C20.4427 9.64442 21.2839 11.6413 22.7675 13.1108C25.2834 15.3033 28.2442 16.9243 31.4466 17.862C31.5693 17.8984 31.6959 17.9182 31.8237 17.9195ZM24.6237 11.2571C24.1041 10.7368 23.6963 10.1149 23.4246 9.43092V9.41814C23.3671 9.27304 23.3172 9.1273 23.2744 8.98732C23.252 8.91125 23.236 8.83966 23.2169 8.76488C23.1971 8.69009 23.1798 8.63384 23.167 8.56864C23.1536 8.5028 23.151 8.4766 23.1421 8.42993C23.1037 8.23434 23.0769 8.03683 23.0622 7.83804C24.3534 7.93583 25.5659 8.49322 26.4813 9.40919C27.7827 10.8806 28.8316 12.5573 29.5852 14.3719C27.7686 13.6158 26.0894 12.563 24.6174 11.2571H24.6237Z" fill="#9C9C9C"/>
<path d="M71.9996 18.8226H51.7925C52.6663 18.2256 53.487 17.5538 54.2445 16.8156C58.9273 12.1187 59.0807 4.99737 56.0892 2.00592C53.0978 -0.985543 45.979 -0.834692 41.277 3.8532C39.3543 5.94595 37.7921 8.34295 36.6543 10.9471C35.5165 8.34103 33.9531 5.94275 32.0284 3.84937C27.3316 -0.833414 20.2109 -0.986822 17.2188 2.00464C14.2261 4.9961 14.3807 12.1174 19.0642 16.8156C19.8223 17.5538 20.643 18.2256 21.5161 18.8226H1.30908C0.586147 18.8226 0 19.4088 0 20.1317V33.2226C0 33.9455 0.586147 34.5316 1.30908 34.5316H3.92725V72.495C3.93172 76.1078 6.8599 79.036 10.4727 79.0405H62.836C66.4494 79.036 69.3776 76.1078 69.3814 72.495V34.5316H71.9996C72.7225 34.5316 73.3086 33.9455 73.3086 33.2226V20.1317C73.3086 19.4088 72.7225 18.8226 71.9996 18.8226ZM43.1294 5.70305C46.8918 1.95222 52.3793 1.99569 54.2394 3.85576C56.0994 5.71584 56.1442 11.2008 52.3934 14.9644C50.6758 16.5522 48.7148 17.8543 46.5849 18.8226H38.7624C38.7624 18.7952 38.7624 18.7651 38.7624 18.7376C38.7624 18.4391 38.74 18.1368 38.7113 17.8325C38.7004 17.7322 38.6889 17.6325 38.6774 17.5302C38.6474 17.279 38.6103 17.0284 38.5655 16.7791C38.5515 16.6915 38.5368 16.6033 38.5214 16.517C38.4588 16.1911 38.3904 15.8702 38.3118 15.5602C38.3015 15.5154 38.2894 15.4764 38.2792 15.4291C38.2095 15.1581 38.1379 14.9056 38.0644 14.6442C38.0542 14.6084 38.0446 14.5694 38.0344 14.5336C39.1069 11.2711 40.8417 8.26433 43.1294 5.70305ZM41.8907 31.9135H31.418V21.4408H41.8907V31.9135ZM20.9166 14.9657C17.1651 11.2021 17.2092 5.71711 19.0699 3.85576C20.93 1.99441 26.415 1.95094 30.176 5.69922C32.5577 8.36724 34.343 11.5134 35.4124 14.9267C35.56 15.3863 35.6738 15.8273 35.7812 16.2556C35.8112 16.3783 35.8361 16.4972 35.8624 16.618C35.9333 16.9376 35.9902 17.2425 36.033 17.5347C36.0471 17.6337 36.0656 17.736 36.0771 17.8325C36.1187 18.1592 36.141 18.4883 36.1442 18.8175H26.7237C24.5952 17.8511 22.6347 16.5509 20.9166 14.9657ZM2.61817 21.4408H28.7998V31.9135H2.61817V21.4408ZM6.54541 72.495V34.5316H31.418V76.4223H10.4727C8.30386 76.4223 6.54541 74.6638 6.54541 72.495ZM34.0362 76.4223V34.5316H39.2725V76.4223H34.0362ZM66.7632 72.495C66.7632 74.6638 65.0054 76.4223 62.836 76.4223H41.8907V34.5316H66.7632V72.495ZM70.6905 31.9135H44.5088V21.4408H70.6905V31.9135Z" fill="#9C9C9C"/>
<path d="M41.481 17.9233C41.607 17.9233 41.7323 17.9054 41.8531 17.8696C45.0593 16.9325 48.0233 15.3083 50.5385 13.1095C52.4011 11.328 53.204 8.70728 52.6594 6.18819C52.5277 5.84174 52.2535 5.56816 51.907 5.43585C49.388 4.89125 46.7672 5.69409 44.9858 7.55672C42.7876 10.072 41.1634 13.0359 40.2257 16.2422C40.1087 16.6385 40.1847 17.0667 40.4321 17.3972C40.6795 17.7283 41.0681 17.9233 41.481 17.9233ZM46.8369 9.40784C47.7535 8.49251 48.9674 7.93576 50.2585 7.83669C50.1607 9.12851 49.6034 10.343 48.688 11.2596C47.2153 12.57 45.5336 13.6247 43.7131 14.3808C44.4699 12.5604 45.5259 10.8799 46.8369 9.40784Z" fill="#9C9C9C"/>
</svg>
