<svg width="79" height="80" viewBox="0 0 79 80" fill="none" xmlns="http://www.w3.org/2000/svg">
<path d="M58.1336 23.427H19.9561V26.8977H58.1336V23.427Z" fill="#9C9C9C"/>
<path d="M58.1337 28.6329H54.663V32.1036H58.1337V28.6329Z" fill="#9C9C9C"/>
<path d="M23.4268 28.6329H19.9561V32.1036H23.4268V28.6329Z" fill="#9C9C9C"/>
<path d="M40.7803 12.1475H37.3096V15.6182H40.7803V12.1475Z" fill="#9C9C9C"/>
<path d="M45.9863 12.1475H42.5156V15.6182H45.9863V12.1475Z" fill="#9C9C9C"/>
<path d="M35.5742 12.1475H32.1035V15.6182H35.5742V12.1475Z" fill="#9C9C9C"/>
<path d="M30.3682 12.1475H26.8975V15.6182H30.3682V12.1475Z" fill="#9C9C9C"/>
<path d="M51.1923 12.1475H47.7216V15.6182H51.1923V12.1475Z" fill="#9C9C9C"/>
<path d="M70.7659 74.8237C69.2433 75.6359 67.9232 76.3373 65.17 76.3535L75.3981 45.6676C75.6795 44.8229 75.2759 43.9019 74.4639 43.5364L65.075 39.3116V22.5595C65.075 19.6889 62.7397 17.3535 59.8691 17.3535H57.266V8.67667C57.266 7.71829 56.4891 6.9414 55.5307 6.9414H40.7801V0H37.3096V6.9414H22.5592C21.6008 6.9414 20.8239 7.71829 20.8239 8.67667V17.3533H18.2208C15.3502 17.3533 13.0148 19.6887 13.0148 22.5593V39.3104L3.62583 43.5363C2.8137 43.9017 2.4102 44.8227 2.69193 45.6674L12.9201 76.3532C10.1667 76.337 8.84677 75.6357 7.32416 74.8236C5.6196 73.9146 3.68757 72.8842 0 72.8842V76.3549C2.81993 76.3549 4.15046 77.0645 5.69085 77.8861C7.39525 78.7952 9.32712 79.8256 13.0148 79.8256C13.991 79.8256 14.8237 79.7611 15.5596 79.6287C17.689 79.2936 19.0964 78.5439 20.3384 77.882C21.8763 77.0626 23.2043 76.3549 26.0132 76.3549C28.8331 76.3549 30.1635 77.0645 31.704 77.8861C33.4084 78.7952 35.3405 79.8256 39.028 79.8256C42.7156 79.8256 44.6476 78.7952 46.3522 77.8863C47.8926 77.0646 49.2231 76.3551 52.043 76.3551C54.8617 76.3551 56.194 77.0627 57.7365 77.8824C58.9824 78.544 60.3937 79.2938 62.5307 79.6289C63.2663 79.7614 64.0987 79.8258 65.0749 79.8258C68.7624 79.8258 70.6945 78.7954 72.399 77.8864C73.9396 77.0648 75.2699 76.3552 78.0899 76.3552V72.8845C74.4025 72.8842 72.4704 73.9146 70.7659 74.8237ZM71.6095 46.0577L70.3652 49.7906L40.7801 36.1973V32.1845L71.6095 46.0577ZM24.2944 10.4121H53.7951V17.3535H24.2944V10.4121ZM16.4854 22.5595C16.4854 21.6026 17.2638 20.8242 18.2207 20.8242H22.559H55.5304H59.8687C60.8256 20.8242 61.604 21.6026 61.604 22.5595V37.7496L39.7566 27.9184C39.3037 27.7145 38.7851 27.7143 38.3324 27.9184L16.4851 37.7488V22.5595H16.4854ZM6.48037 46.0577L37.3096 32.1847V36.1975L7.72453 49.7906L6.48037 46.0577ZM61.6729 75.8689C60.8299 75.5947 60.1316 75.2247 59.3645 74.8173C57.6592 73.9113 55.7261 72.8844 52.0429 72.8844C48.3553 72.8844 46.4233 73.9148 44.7187 74.8237C43.178 75.6454 41.8478 76.3551 39.0279 76.3551C36.2079 76.3551 34.8774 75.6455 33.337 74.8237C31.6326 73.9148 29.7004 72.8844 26.0129 72.8844C22.3371 72.8844 20.4081 73.9123 18.7062 74.819C17.9447 75.2247 17.2512 75.5931 16.416 75.8666L8.82837 53.1027L37.3094 40.017V60.7368H40.7801V40.017L69.2612 53.1029L61.6729 75.8689Z" fill="#9C9C9C"/>
</svg>
