<svg width="62" height="80" viewBox="0 0 62 80" fill="none" xmlns="http://www.w3.org/2000/svg">
<path d="M4 18.6667C1.79469 18.6667 0 20.4614 0 22.6667V33.3335C0 35.5388 1.79469 37.3335 4 37.3335C6.20531 37.3335 7.99999 35.5388 7.99999 33.3335V22.6667C7.99999 20.4614 6.20531 18.6667 4 18.6667ZM5.33343 33.3333C5.33343 34.0692 4.73609 34.6666 4.00015 34.6666C3.26422 34.6666 2.66687 34.0692 2.66687 33.3333V22.6666C2.66687 21.9306 3.26422 21.3333 4.00015 21.3333C4.73609 21.3333 5.33343 21.9306 5.33343 22.6666V33.3333Z" fill="#9C9C9C"/>
<path d="M57.3334 18.6667C55.1281 18.6667 53.3334 20.4614 53.3334 22.6667V33.3335C53.3334 35.5388 55.1281 37.3335 57.3334 37.3335C59.5387 37.3335 61.3334 35.5388 61.3334 33.3335V22.6667C61.3334 20.4614 59.5387 18.6667 57.3334 18.6667ZM58.6667 33.3333C58.6667 34.0692 58.0693 34.6666 57.3334 34.6666C56.5974 34.6666 56.0001 34.0692 56.0001 33.3333V22.6666C56.0001 21.9306 56.5974 21.3333 57.3334 21.3333C58.0693 21.3333 58.6667 21.9306 58.6667 22.6666V33.3333Z" fill="#9C9C9C"/>
<path d="M57.4106 19.9147C53.8665 8.18937 42.8692 0 30.6665 0C18.4639 0 7.46654 8.18937 3.92248 19.9147C3.7092 20.6187 4.10779 21.364 4.8131 21.5761C5.51982 21.7908 6.26248 21.3908 6.47576 20.6854C9.68247 10.0773 19.6292 2.66672 30.6665 2.66672C41.7038 2.66672 51.6506 10.0773 54.8571 20.6854C55.0318 21.2628 55.5612 21.6334 56.1331 21.6334C56.261 21.6334 56.3904 21.6147 56.5198 21.5761C57.2251 21.364 57.6238 20.6186 57.4106 19.9147Z" fill="#9C9C9C"/>
<path d="M57.3334 34.6666C56.5975 34.6666 56.0001 35.2626 56.0001 35.9999C56.0001 39.6758 53.0095 42.6666 49.3334 42.6666C48.5975 42.6666 48.0001 43.2626 48.0001 43.9999C48.0001 44.7372 48.5975 45.3332 49.3334 45.3332C54.4801 45.3332 58.6667 41.1452 58.6667 35.9999C58.6667 35.2626 58.0693 34.6666 57.3334 34.6666Z" fill="#9C9C9C"/>
<path d="M46.6666 38.6667H38.6666C36.4613 38.6667 34.6666 40.4614 34.6666 42.6667V45.3335C34.6666 47.5388 36.4613 49.3335 38.6666 49.3335H46.6666C48.8719 49.3335 50.6666 47.5388 50.6666 45.3335V42.6667C50.6666 40.4614 48.8719 38.6667 46.6666 38.6667ZM47.9999 45.3333C47.9999 46.0692 47.4026 46.6666 46.6666 46.6666H38.6666C37.9307 46.6666 37.3333 46.0692 37.3333 45.3333V42.6666C37.3333 41.9307 37.9307 41.3333 38.6666 41.3333H46.6666C47.4026 41.3333 47.9999 41.9307 47.9999 42.6666V45.3333Z" fill="#9C9C9C"/>
<path d="M30.6666 6.66675C18.9026 6.66675 9.33337 16.2374 9.33337 28C9.33337 39.7627 18.9026 49.3333 30.6666 49.3333C32.8426 49.3333 34.9973 49.0039 37.0707 48.3533C37.5001 48.2173 37.8333 47.8747 37.9548 47.4412C38.0762 47.0066 37.9707 46.5412 37.6733 46.2012C37.5187 46.0253 37.3333 45.7306 37.3333 45.3333V42.6666C37.3333 41.9306 37.9307 41.3333 38.6666 41.3333H46.6387C47.0587 41.3333 47.4533 41.1373 47.7054 40.8027C50.5147 37.068 52.0001 32.6413 52.0001 28C51.9999 16.2374 42.4307 6.66675 30.6666 6.66675ZM45.9599 38.6667H38.6666C36.4613 38.6667 34.6666 40.4614 34.6666 42.6667V45.3334C34.6666 45.6308 34.7013 45.9255 34.768 46.212C33.424 46.5147 32.0507 46.6667 30.6666 46.6667C20.3734 46.6667 11.9999 38.2934 11.9999 28C11.9999 17.7066 20.3734 9.33331 30.6666 9.33331C40.9599 9.33331 49.3333 17.7067 49.3333 28C49.3333 31.84 48.1693 35.5147 45.9599 38.6667Z" fill="#9C9C9C"/>
<path d="M44.5173 52H16.8146C8.27871 52 1.33325 58.9453 1.33325 67.4814V78.6667C1.33325 79.404 1.9306 80 2.66653 80H58.6665C59.4024 80 59.9998 79.404 59.9998 78.6667V67.4814C59.9999 58.9453 53.0546 52 44.5173 52ZM57.3334 77.3333H3.99997V67.4812C3.99997 60.4159 9.74934 54.6666 16.8146 54.6666H44.5187C51.584 54.6666 57.3334 60.4145 57.3334 67.4812V77.3333Z" fill="#9C9C9C"/>
<path d="M13.3334 67.9999C12.5975 67.9999 12.0001 68.5958 12.0001 69.3332V78.6664C12.0001 79.4038 12.5975 79.9997 13.3334 79.9997C14.0693 79.9997 14.6667 79.4038 14.6667 78.6664V69.3332C14.6667 68.5958 14.0693 67.9999 13.3334 67.9999Z" fill="#9C9C9C"/>
<path d="M49.3334 67.9999C48.5975 67.9999 48.0001 68.5958 48.0001 69.3332V78.6664C48.0001 79.4038 48.5975 79.9997 49.3334 79.9997C50.0693 79.9997 50.6667 79.4038 50.6667 78.6664V69.3332C50.6667 68.5958 50.0693 67.9999 49.3334 67.9999Z" fill="#9C9C9C"/>
</svg>
