<svg width="49" height="49" viewBox="0 0 49 49" fill="none" xmlns="http://www.w3.org/2000/svg">
<g clip-path="url(#clip0_113_288)">
<path d="M48.7895 16.3114L40.9947 5.49437C40.7851 5.20346 40.4483 5.03101 40.0897 5.03101H8.91034C8.55171 5.03101 8.21506 5.20335 8.00535 5.49437L0.210512 16.3114C-0.0342231 16.651 -0.0682451 17.0992 0.122501 17.4718C0.167567 17.5599 0.224121 17.6396 0.288707 17.711L23.6951 43.6016C23.9066 43.8355 24.2072 43.969 24.5225 43.969C24.8379 43.969 25.1385 43.8354 25.35 43.6016L48.7303 17.6874C48.7864 17.6218 48.837 17.5507 48.8774 17.4718C49.0683 17.0991 49.0342 16.6509 48.7895 16.3114ZM45.7058 15.848H34.4736L40.0897 8.05451L45.7058 15.848ZM30.7953 18.079L24.5194 38.9843L18.2072 18.079H30.7953ZM18.8839 15.848L24.5 8.05451L30.1161 15.848H18.8839ZM26.6788 7.26196H37.9109L32.2948 15.0556L26.6788 7.26196ZM16.7052 15.0555L11.0891 7.26196H22.3214L16.7052 15.0555ZM15.8768 18.079L22.019 38.421L3.62777 18.079H15.8768ZM33.1247 18.079H45.4173L27.0137 38.4347L33.1247 18.079ZM8.91034 8.05451L14.5264 15.848H3.29425L8.91034 8.05451Z" fill="white"/>
</g>
<defs>
<clipPath id="clip0_113_288">
<rect width="49" height="49" fill="white"/>
</clipPath>
</defs>
</svg>
