<svg width="50" height="50" viewBox="0 0 50 50" fill="none" xmlns="http://www.w3.org/2000/svg">
<path d="M5.46875 28.9062H7.03125V30.4688H5.46875V28.9062Z" fill="white"/>
<path d="M1.5625 32.0312H3.125V33.5938H1.5625V32.0312Z" fill="white"/>
<path d="M4.6875 9.375H14.0625V10.9375H4.6875V9.375Z" fill="white"/>
<path d="M1.5625 9.375H3.125V10.9375H1.5625V9.375Z" fill="white"/>
<path d="M6.25 12.5H7.8125V14.0625H6.25V12.5Z" fill="white"/>
<path d="M43.4633 20.4594C45.6953 23.3523 46.875 26.8133 46.875 30.4688C46.875 39.5148 39.5156 46.875 30.4688 46.875C22.3031 46.875 15.3156 40.7836 14.2133 32.707C14.1609 32.3195 13.8305 32.0313 13.4398 32.0313H4.6875V33.5938H12.7711C14.2648 42.1031 21.7547 48.4375 30.4688 48.4375C40.3766 48.4375 48.4375 40.3773 48.4375 30.4688C48.4375 26.4648 47.1453 22.6727 44.7 19.5039L43.4633 20.4594Z" fill="white"/>
<path d="M16.4062 30.4688C16.4062 38.2227 22.7148 44.5312 30.4688 44.5312C38.2227 44.5312 44.5312 38.2227 44.5312 30.4688C44.5312 24.6531 40.982 19.65 35.9359 17.5125L38.8336 14.6148C38.9805 14.4688 39.0625 14.2703 39.0625 14.0625V2.34375H39.0555C39.0555 2.24297 39.0438 2.14141 39.0031 2.04453C38.882 1.75234 38.5969 1.5625 38.2812 1.5625H22.6562C22.4492 1.5625 22.25 1.64453 22.1039 1.79141L18.9797 4.91562C18.8375 5.05703 18.75 5.25234 18.75 5.46875V12.5H9.375V14.0625H18.75V16.8547C15.1961 19.9164 12.9719 24.2523 12.5672 28.9062H8.59375V30.4688H13.2984C13.7164 30.4688 14.0602 30.1398 14.0789 29.7227C14.282 25.1828 16.3836 20.9164 19.85 17.9688H24.0555C19.5211 20.3055 16.4062 25.0258 16.4062 30.4688ZM35.9375 15.3016V5.79219L37.5 4.22969V13.7391L35.9375 15.3016ZM34.8328 4.6875H29.2297L30.7922 3.125H36.3953L34.8328 4.6875ZM22.9797 3.125H28.5828L27.0203 4.6875H21.4172L22.9797 3.125ZM20.3125 16.4062V6.25H26.5625V10.1562H28.125V6.25H34.375V16.4062H20.3125ZM23.5578 20.0617L25.1 22.732L26.4531 21.9508L24.9148 19.2859C26.3695 18.5602 27.9813 18.1141 29.6875 18.0078V21.0938H31.25V18.0086C32.9562 18.1148 34.568 18.5617 36.0227 19.2867L34.4805 21.957L35.8336 22.7383L37.3789 20.0617C38.7633 20.9844 39.9531 22.1734 40.875 23.5578L38.1977 25.1031L38.9789 26.4562L41.65 24.9141C42.375 26.3687 42.8219 27.9805 42.9281 29.6867H39.8438V31.2492H42.9289C42.8227 32.9555 42.3758 34.5672 41.6508 36.0219L38.9797 34.4797L38.1984 35.8328L40.8758 37.3781C39.9531 38.7625 38.7641 39.9523 37.3797 40.8742L35.8344 38.1977L34.4813 38.9789L36.0234 41.6492C34.5688 42.3742 32.9578 42.8211 31.2516 42.9273V39.8438H29.6891V42.9289C27.9828 42.8227 26.3711 42.3758 24.9164 41.6508L26.4547 38.9859L25.1016 38.2047L23.5594 40.875C22.175 39.9531 20.9852 38.7633 20.0633 37.3789L22.7406 35.8336L21.9594 34.4805L19.2883 36.0227C18.5633 34.568 18.1164 32.9562 18.0102 31.25H21.0938V29.6875H18.0086C18.1148 27.9813 18.5617 26.3695 19.2867 24.9148L21.9578 26.457L22.7391 25.1039L20.0617 23.5586C20.9844 22.1742 22.1742 20.9844 23.5578 20.0617Z" fill="white"/>
<path d="M30.4688 33.5938C32.1922 33.5938 33.5938 32.1923 33.5938 30.4688C33.5938 29.8907 33.4258 29.3563 33.1508 28.8915L36.4898 25.5524L35.3852 24.4478L32.0469 27.7868C31.5813 27.5118 31.0469 27.3438 30.4688 27.3438C28.7453 27.3438 27.3438 28.7454 27.3438 30.4688C27.3438 32.1923 28.7453 33.5938 30.4688 33.5938ZM30.4688 28.9063C31.3305 28.9063 32.0313 29.6071 32.0313 30.4688C32.0313 31.3306 31.3305 32.0313 30.4688 32.0313C29.607 32.0313 28.9063 31.3306 28.9063 30.4688C28.9063 29.6071 29.607 28.9063 30.4688 28.9063Z" fill="white"/>
<path d="M40.8479 17.7424L41.9528 16.6376L43.515 18.1998L42.4102 19.3047L40.8479 17.7424Z" fill="white"/>
</svg>
