<svg width="50" height="50" viewBox="0 0 50 50" fill="none" xmlns="http://www.w3.org/2000/svg">
<path d="M25 0C11.2152 0 0 11.2152 0 25C0 38.7848 11.2152 50 25 50C38.7848 50 50 38.7848 50 25C50 11.2152 38.7848 0 25 0ZM25 47.9167C12.3637 47.9167 2.0833 37.6363 2.0833 25C2.0833 12.3637 12.3637 2.0833 25 2.0833C37.6363 2.0833 47.9167 12.3637 47.9167 25C47.9167 37.6363 37.6363 47.9167 25 47.9167Z" fill="white"/>
<path d="M38.4165 29.2104C37.852 29.0751 37.2944 29.423 37.1622 29.9824C35.8194 35.6353 30.8187 39.5833 24.9999 39.5833C19.1741 39.5833 14.1713 35.6292 12.8346 29.9692C12.7013 29.4077 12.1367 29.0669 11.5814 29.194C11.0208 29.3263 10.6739 29.8878 10.8062 30.4473C12.3666 37.0533 18.2036 41.6665 24.9999 41.6665C31.788 41.6665 37.6229 37.0604 39.1886 30.4646C39.3219 29.9041 38.9761 29.3426 38.4165 29.2104Z" fill="white"/>
<path d="M16.6667 20.8333C17.8173 20.8333 18.75 19.9006 18.75 18.75C18.75 17.5995 17.8173 16.6667 16.6667 16.6667C15.5161 16.6667 14.5834 17.5995 14.5834 18.75C14.5834 19.9006 15.5161 20.8333 16.6667 20.8333Z" fill="white"/>
<path d="M33.3333 20.8333C34.4839 20.8333 35.4166 19.9006 35.4166 18.75C35.4166 17.5995 34.4839 16.6667 33.3333 16.6667C32.1827 16.6667 31.25 17.5995 31.25 18.75C31.25 19.9006 32.1827 20.8333 33.3333 20.8333Z" fill="white"/>
</svg>
