<svg width="50" height="50" viewBox="0 0 50 50" fill="none" xmlns="http://www.w3.org/2000/svg">
<path d="M0.573364 34.1243L1.46558 34.4215C5.74219 35.8442 9.73243 38.0146 13.2505 40.8319L20.3116 46.481C20.3594 46.5141 20.4109 46.5423 20.4649 46.5643L20.46 46.5751L23.3319 48.0122V49.9968H24.9981V37.916L27.9975 35.6663L27.9886 35.6548C28.0227 35.6352 28.0555 35.6132 28.0869 35.589C33.3629 30.33 40.2343 26.9696 47.6246 26.0331L49.2632 25.8283C49.72 25.771 50.0437 25.3545 49.9864 24.8978C49.9471 24.5842 49.7334 24.3198 49.4349 24.2153L42.504 21.7899C36.8581 19.8138 30.679 22.789 28.7029 28.4352C28.6662 28.5397 28.6312 28.6452 28.5978 28.7511L26.7838 34.4943L24.9984 35.8331V23.8394C24.9964 22.2411 25.7959 20.748 27.1272 19.863L27.118 19.8495C27.1662 19.824 27.2118 19.7935 27.2537 19.7588C30.6004 16.4111 32.3488 11.7875 32.0546 7.06294L31.6637 0.78826C31.6391 0.39343 31.3406 0.0706852 30.949 0.0149831C30.5581 -0.0371148 30.1836 0.189626 30.0483 0.559881L27.3536 8.10195C26.3458 10.9188 25.8307 13.8887 25.8317 16.8809V18.7581C24.2563 19.9737 23.3332 21.8505 23.3319 23.8404V25.4908L22.4846 24.6435C22.3427 18.4481 18.325 13.0093 12.4451 11.0522L6.93225 9.21927C6.49548 9.07313 6.02365 9.30872 5.87784 9.74516C5.82968 9.88868 5.82181 10.0427 5.85491 10.1905L6.77137 14.3249C8.23929 21.0701 14.2256 25.869 21.1284 25.8349H21.3208L23.3323 27.8461V46.1491L21.6658 45.3159V43.6022C21.6655 36.4009 15.8276 30.5633 8.62625 30.5637C7.22485 30.5637 5.8323 30.7898 4.50266 31.2331L0.573364 32.5427C0.135939 32.6866 -0.101942 33.1574 0.0419004 33.5945C0.124471 33.8458 0.321722 34.0431 0.573364 34.126V34.1243ZM30.1866 29.2511C31.3927 25.443 34.9219 22.8512 38.9164 22.8398C39.9512 22.8414 40.978 23.0173 41.9541 23.3604L45.6341 24.6488C39.595 25.7323 33.9409 28.3664 29.2259 32.2931L30.1866 29.2511ZM27.4978 16.8809C27.4968 14.0801 27.9781 11.2999 28.9208 8.66257L30.2541 4.93676L30.393 7.16714C30.6099 10.6616 29.5843 14.1204 27.4978 16.9317V16.8809ZM8.40082 13.9589L7.80088 11.2603L11.9176 12.6325C16.4783 14.1505 19.8306 18.0589 20.6366 22.7972L13.9232 16.0837L12.7449 17.2617L19.558 24.0747C14.0585 23.4348 9.5745 19.3695 8.40082 13.9589ZM5.0315 32.8137C10.9893 30.8271 17.4292 34.0464 19.4154 40.0039C19.8024 41.1641 19.9996 42.3794 19.9993 43.6022V44.0973L14.2921 39.5324C11.0191 36.9104 7.35133 34.8236 3.42531 33.3494L5.0315 32.8137Z" fill="white"/>
</svg>
