<svg width="185" height="42" viewBox="0 0 185 42" fill="none" xmlns="http://www.w3.org/2000/svg">
<path d="M53 28.7L54.2 28.4V15.6L53 15.3V15H58.6C60.8133 15 62.4 15.3667 63.36 16.1C64.32 16.82 64.8 17.8867 64.8 19.3C64.8 20.7133 64.32 21.7867 63.36 22.52C62.4 23.24 60.8133 23.6 58.6 23.6H57.5V28.4L58.7 28.7V29H53V28.7ZM58.6 23.1C59.44 23.1 60.1133 22.78 60.62 22.14C61.14 21.5 61.4 20.5533 61.4 19.3C61.4 18.06 61.14 17.12 60.62 16.48C60.1133 15.8267 59.44 15.5 58.6 15.5H57.5V23.1H58.6ZM66.2961 28.7L67.4961 28.4V15.6L66.2961 15.3V15H68.8961C70.0961 15 70.6961 15.6 70.6961 16.8V28.4L71.8961 28.7V29H66.2961V28.7ZM76.993 29.3C75.8063 29.3 74.893 29.0467 74.253 28.54C73.613 28.0333 73.293 27.3867 73.293 26.6C73.293 26.08 73.4063 25.5667 73.633 25.06C73.7263 24.82 73.8463 24.6 73.993 24.4C74.5396 24.2667 75.133 24.1467 75.773 24.04C77.213 23.8 78.4863 23.6533 79.593 23.6V23C79.593 21.52 79.413 20.5 79.053 19.94C78.693 19.38 78.1396 19.1 77.393 19.1C77.113 19.1 76.873 19.1333 76.673 19.2L76.393 19.3V22.3L76.133 22.36C75.9196 22.3867 75.7396 22.4 75.593 22.4C75.1396 22.4 74.773 22.2667 74.493 22C74.2263 21.72 74.093 21.3533 74.093 20.9C74.093 20.2867 74.3996 19.7667 75.013 19.34C75.6396 18.9133 76.5663 18.7 77.793 18.7C78.833 18.7 79.7263 18.8867 80.473 19.26C81.233 19.62 81.8063 20.1267 82.193 20.78C82.593 21.42 82.793 22.16 82.793 23V28.4L83.993 28.7V29H82.193C81.393 29 80.773 28.7533 80.333 28.26C80.1463 28.06 79.9996 27.8067 79.893 27.5C79.7063 27.8333 79.4863 28.1333 79.233 28.4C78.633 29 77.8863 29.3 76.993 29.3ZM77.793 28.6C78.2863 28.6 78.733 28.3333 79.133 27.8C79.2796 27.6 79.433 27.3333 79.593 27V24.1C78.9796 24.1 78.393 24.1333 77.833 24.2C77.4196 24.2533 77.1396 24.2867 76.993 24.3C76.9263 24.4467 76.8596 24.6467 76.793 24.9C76.6596 25.4067 76.593 25.9067 76.593 26.4C76.593 27.1467 76.7063 27.7 76.933 28.06C77.1596 28.42 77.4463 28.6 77.793 28.6ZM85.2023 28.7L86.4023 28.4V19.6L85.2023 19.3V19H87.0023C87.789 19 88.409 19.2533 88.8623 19.76C89.0357 19.96 89.1823 20.2067 89.3023 20.5C89.489 20.1533 89.709 19.8533 89.9623 19.6C90.5623 19 91.309 18.7 92.2023 18.7C92.949 18.7 93.6157 18.86 94.2023 19.18C94.8023 19.4867 95.269 19.8933 95.6023 20.4C95.9357 20.9067 96.1023 21.44 96.1023 22V28.4L97.3023 28.7V29H94.7023C93.5023 29 92.9023 28.4 92.9023 27.2V22C92.9023 21.16 92.749 20.52 92.4423 20.08C92.149 19.6267 91.8023 19.4 91.4023 19.4C90.8957 19.4 90.4423 19.6667 90.0423 20.2C89.869 20.4267 89.7223 20.6933 89.6023 21V28.4L90.8023 28.7V29H85.2023V28.7ZM103.703 29.3C102.823 29.3 102.056 29.14 101.403 28.82C100.763 28.5 100.27 28.06 99.9231 27.5C99.5765 26.94 99.4031 26.3067 99.4031 25.6V19.5H98.0031V19H99.4031V18C99.4031 16.8 100.003 16.2 101.203 16.2H102.603V19H105.403V19.5H102.603V25.6C102.603 26.8267 102.73 27.6667 102.983 28.12C103.236 28.5733 103.61 28.8 104.103 28.8C104.583 28.8 105.003 28.5667 105.363 28.1C105.723 27.6333 105.903 27 105.903 26.2H106.403C106.403 27.1867 106.156 27.9533 105.663 28.5C105.17 29.0333 104.516 29.3 103.703 29.3ZM114.407 29.3C112.274 29.3 110.607 28.6667 109.407 27.4C108.207 26.1333 107.607 24.3333 107.607 22C107.607 20.4667 107.867 19.1533 108.387 18.06C108.92 16.9533 109.66 16.12 110.607 15.56C111.567 14.9867 112.674 14.7 113.927 14.7C114.687 14.7 115.454 14.92 116.227 15.36C116.52 15.52 116.814 15.7333 117.107 16C117.334 15.6533 117.567 15.38 117.807 15.18C118.047 15.0067 118.18 14.9133 118.207 14.9H118.707V18.7H117.907C117.734 18.06 117.474 17.48 117.127 16.96C116.807 16.4533 116.407 16.0333 115.927 15.7C115.46 15.3667 114.92 15.2 114.307 15.2C113.387 15.2 112.62 15.7333 112.007 16.8C111.407 17.8667 111.107 19.6 111.107 22C111.107 24.44 111.434 26.1867 112.087 27.24C112.754 28.28 113.66 28.8 114.807 28.8C115.434 28.8 116.027 28.6267 116.587 28.28C117.16 27.92 117.62 27.4467 117.967 26.86C118.327 26.2733 118.507 25.6533 118.507 25H119.007C119.007 25.76 118.8 26.4733 118.387 27.14C117.987 27.7933 117.434 28.32 116.727 28.72C116.034 29.1067 115.26 29.3 114.407 29.3ZM120.515 28.7L121.715 28.4V19.6L120.515 19.3V19H123.115C124.315 19 124.915 19.6 124.915 20.8V28.4L126.115 28.7V29H120.515V28.7ZM123.115 17.8C122.715 17.8 122.382 17.6667 122.115 17.4C121.848 17.1333 121.715 16.8 121.715 16.4C121.715 16 121.848 15.6667 122.115 15.4C122.382 15.1333 122.715 15 123.115 15C123.515 15 123.848 15.1333 124.115 15.4C124.382 15.6667 124.515 16 124.515 16.4C124.515 16.8 124.382 17.1333 124.115 17.4C123.848 17.6667 123.515 17.8 123.115 17.8ZM132.512 29.3C131.632 29.3 130.865 29.14 130.212 28.82C129.572 28.5 129.078 28.06 128.732 27.5C128.385 26.94 128.212 26.3067 128.212 25.6V19.5H126.812V19H128.212V18C128.212 16.8 128.812 16.2 130.012 16.2H131.412V19H134.212V19.5H131.412V25.6C131.412 26.8267 131.538 27.6667 131.792 28.12C132.045 28.5733 132.418 28.8 132.912 28.8C133.392 28.8 133.812 28.5667 134.172 28.1C134.532 27.6333 134.712 27 134.712 26.2H135.212C135.212 27.1867 134.965 27.9533 134.472 28.5C133.978 29.0333 133.325 29.3 132.512 29.3ZM138.125 33.3C137.525 33.3 137.058 33.14 136.725 32.82C136.392 32.5 136.225 32.06 136.225 31.5C136.225 30.9933 136.358 30.6 136.625 30.32C136.905 30.04 137.272 29.9 137.725 29.9C137.832 29.9 137.938 29.9067 138.045 29.92C138.152 29.9467 138.225 29.96 138.265 29.96L138.525 30V32.7C138.912 32.6333 139.252 32.42 139.545 32.06C139.838 31.7 140.165 31.08 140.525 30.2L140.925 29.2L135.725 19.6L134.725 19.3V19H137.225C137.918 19 138.465 19.1467 138.865 19.44C139.278 19.72 139.632 20.14 139.925 20.7L142.425 25.32L144.525 19.9L143.025 19.3V19H146.725V19.3L145.125 19.9L141.125 30.2C140.698 31.2933 140.245 32.08 139.765 32.56C139.285 33.0533 138.738 33.3 138.125 33.3Z" fill="#273C00"/>
<g clip-path="url(#clip0_113_69)">
<path d="M7.22421 37.8604V31.4549C7.22421 26.8739 8.72634 22.5598 11.5682 18.979C14.3248 15.5055 18.201 13.0109 22.4827 11.9547C23.9896 11.583 25.4694 11.1912 26.8987 10.7863C25.7668 7.69669 24.0432 4.61081 21.7614 1.59605L20.5533 0C17.2049 3.65953 13.4366 7.21358 9.03786 10.8611C6.06017 13.3302 3.95157 16.7819 3.1006 20.5803C2.22388 24.4936 2.6855 28.4749 4.43558 32.0938L7.22421 37.8604Z" fill="#618916"/>
<path d="M38.6165 11.832C36.6652 15.7408 34.2349 19.612 31.3626 23.3808C28.3963 27.273 24.9544 31.0666 21.1324 34.656C17.6735 37.9044 14.5587 40.3761 12.3657 42.0001H13.5919C18.5221 42.0001 22.8512 41.2569 26.4592 39.7913C29.7668 38.4476 32.493 36.4865 34.5619 33.9626C38.9127 28.6554 40.3483 20.8049 38.6165 11.832Z" fill="#618916"/>
<path d="M29.4269 21.8612C32.3398 18.0356 34.7796 14.1071 36.7034 10.1484C34.2035 11.0975 31.5625 11.9839 28.8288 12.79V12.79C28.8207 12.7924 28.8123 12.7948 28.8042 12.7973L27.6721 13.1311L27.6702 13.125C26.1827 13.5477 24.6417 13.9565 23.0721 14.3438C19.3164 15.2702 15.9154 17.4596 13.4956 20.5087C11.0025 23.65 9.68488 27.4351 9.68488 31.455V40.9081C12.0404 39.2297 15.6856 36.4001 19.4902 32.8228C23.2058 29.3291 26.549 25.6411 29.4269 21.8612Z" fill="#618916"/>
</g>
<defs>
<clipPath id="clip0_113_69">
<rect width="42" height="42" fill="white"/>
</clipPath>
</defs>
</svg>
